<?xml version="1.0" encoding="UTF-8"?>
<svg width="459px" height="413px" viewBox="0 0 459 413" version="1.1" xmlns="http://www.w3.org/2000/svg" xmlns:xlink="http://www.w3.org/1999/xlink">
    <title>Hero</title>
    <g id="Page-1" stroke="none" stroke-width="1" fill="none" fill-rule="evenodd">
        <g id="6" transform="translate(-719, -156)">
            <g id="Hero" transform="translate(719.752, 156.2727)">
                <path d="M128.571797,169.865114 L166.452995,235.477274 C167.882057,237.952482 167.882057,241.002065 166.452995,243.477274 L128.571797,309.089433 C127.142734,311.564642 124.501718,313.089433 121.643594,313.089433 L45.8811978,313.089433 C43.0230731,313.089433 40.382057,311.564642 38.9529946,309.089433 L1.07179677,243.477274 C-0.35726559,241.002065 -0.35726559,237.952482 1.07179677,235.477274 L38.9529946,169.865114 C40.382057,167.389906 43.0230731,165.865114 45.8811978,165.865114 L121.643594,165.865114 C124.406447,165.865114 126.966425,167.289947 128.424888,169.620783 L128.571797,169.865114 Z" id="Polygon" fill="#000000"></path>
                <path d="M120.575533,181.239498 L152.604357,236.715049 C153.591205,238.424319 153.591205,240.530228 152.604357,242.239498 L120.575533,297.715049 C119.588685,299.424319 117.764915,300.477274 115.79122,300.477274 L51.7335718,300.477274 C49.759876,300.477274 47.9361059,299.424319 46.949258,297.715049 L14.9204341,242.239498 C13.9335862,240.530228 13.9335862,238.424319 14.9204341,236.715049 L46.949258,181.239498 C47.9361059,179.530228 49.759876,178.477274 51.7335718,178.477274 L115.79122,178.477274 C117.699126,178.477274 119.466934,179.461201 120.474084,181.070774 L120.575533,181.239498 Z" id="Polygon" fill="#FFECAD"></path>
                <path d="M418.571797,169.865114 L456.452995,235.477274 C457.882057,237.952482 457.882057,241.002065 456.452995,243.477274 L418.571797,309.089433 C417.142734,311.564642 414.501718,313.089433 411.643594,313.089433 L335.881198,313.089433 C333.023073,313.089433 330.382057,311.564642 328.952995,309.089433 L291.071797,243.477274 C289.642734,241.002065 289.642734,237.952482 291.071797,235.477274 L328.952995,169.865114 C330.382057,167.389906 333.023073,165.865114 335.881198,165.865114 L411.643594,165.865114 C414.406447,165.865114 416.966425,167.289947 418.424888,169.620783 L418.571797,169.865114 Z" id="Polygon" fill="#000000"></path>
                <path d="M410.575533,181.239498 L442.604357,236.715049 C443.591205,238.424319 443.591205,240.530228 442.604357,242.239498 L410.575533,297.715049 C409.588685,299.424319 407.764915,300.477274 405.79122,300.477274 L341.733572,300.477274 C339.759876,300.477274 337.936106,299.424319 336.949258,297.715049 L304.920434,242.239498 C303.933586,240.530228 303.933586,238.424319 304.920434,236.715049 L336.949258,181.239498 C337.936106,179.530228 339.759876,178.477274 341.733572,178.477274 L405.79122,178.477274 C407.699126,178.477274 409.466934,179.461201 410.474084,181.070774 L410.575533,181.239498 Z" id="Polygon" fill="#FFECAD"></path>
                <g id="Group" transform="translate(145, 81.8651)" fill="#3C3C3C">
                    <path d="M128.571797,4 L166.452995,69.6121593 C167.882057,72.0873679 167.882057,75.1369507 166.452995,77.6121593 L128.571797,143.224319 C127.142734,145.699527 124.501718,147.224319 121.643594,147.224319 L45.8811978,147.224319 C43.0230731,147.224319 40.382057,145.699527 38.9529946,143.224319 L1.07179677,77.6121593 C-0.35726559,75.1369507 -0.35726559,72.0873679 1.07179677,69.6121593 L38.9529946,4 C40.382057,1.52479139 43.0230731,0 45.8811978,0 L121.643594,0 C124.406447,0 126.966425,1.42483284 128.424888,3.75566847 L128.571797,4 Z" id="Polygon"></path>
                </g>
                <g id="Group" transform="translate(128, 235.1427)">
                    <path d="M154.071797,4 L200.452995,84.3345912 C201.882057,86.8097998 201.882057,89.8593826 200.452995,92.3345912 L154.071797,172.669182 C152.642734,175.144391 150.001718,176.669182 147.143594,176.669182 L54.3811978,176.669182 C51.5230731,176.669182 48.882057,175.144391 47.4529946,172.669182 L1.07179677,92.3345912 C-0.35726559,89.8593826 -0.35726559,86.8097998 1.07179677,84.3345912 L47.4529946,4 C48.882057,1.52479139 51.5230731,0 54.3811978,0 L147.143594,0 C149.906447,0 152.466425,1.42483284 153.924888,3.75566847 L154.071797,4 Z" id="Polygon" fill="#000000"></path>
                    <path d="M145.571797,18.7224319 L183.452995,84.3345912 C184.882057,86.8097998 184.882057,89.8593826 183.452995,92.3345912 L145.571797,157.946751 C144.142734,160.421959 141.501718,161.946751 138.643594,161.946751 L62.8811978,161.946751 C60.0230731,161.946751 57.382057,160.421959 55.9529946,157.946751 L18.0717968,92.3345912 C16.6427344,89.8593826 16.6427344,86.8097998 18.0717968,84.3345912 L55.9529946,18.7224319 C57.382057,16.2472233 60.0230731,14.7224319 62.8811978,14.7224319 L138.643594,14.7224319 C141.406447,14.7224319 143.966425,16.1472647 145.424888,18.4781003 L145.571797,18.7224319 Z" id="Polygon" fill="#FFD54C"></path>
                </g>
                <path d="M151.03717,4.50150278 L183.324877,59.3719061 C185.810158,63.6765398 184.335282,69.1808534 180.030648,71.6661348 C175.726015,74.1514162 170.221701,72.6765398 167.73642,68.3719061 L135.448712,13.5015028 C132.963431,9.19686917 134.438308,3.69255552 138.742941,1.20727414 C142.967859,-1.2319835 148.348436,0.143602193 150.896019,4.26527492 L151.03717,4.50150278 Z" id="Rectangle" fill="#3C3C3C"></path>
                <path d="M320.515803,13.8929666 L288.00356,66.5309957 C285.518279,70.8356293 280.013965,73.126316 275.709332,70.6410346 C271.404698,68.1557533 269.929822,62.6514396 272.415103,58.346806 L304.927346,4.89296663 C307.412627,0.588333018 312.916941,-0.886543379 317.221574,1.598738 C321.526208,4.08401937 323.001084,9.58833302 320.515803,13.8929666 Z" id="Rectangle" fill="#3C3C3C"></path>
                <rect id="Rectangle" fill="#000000" x="192.247967" y="269.727274" width="73" height="18" rx="9"></rect>
                <rect id="Rectangle" fill="#000000" x="175.247967" y="314.727274" width="108" height="18" rx="9"></rect>
                <rect id="Rectangle" fill="#000000" x="192.247967" y="359.727274" width="73" height="18" rx="9"></rect>
            </g>
        </g>
    </g>
</svg>